#!OML:ASF E:\Steps\Project 1\Capture day 1\Session 2\Subject.ASF
:FULLY-SPECIFIED
:DEGREES
1130
root 3.45479 18.0351 17.9745 -153.103 -1.83311 175.921
lowerback -22.8414 -2.88481 -5.02903
upperback 0.712569 -2.69501 0.481041
thorax 13.9671 -1.6852 2.48331
lowerneck 0.0303211 -3.52374 -1.29764
upperneck 23.029 -2.98742 1.39785
head 7.06585 -0.664311 0.590656
rclavicle -3.18055e-015 4.17448e-015
rhumerus -40.0924 -17.8832 -76.0353
rradius 35.7404
rwrist -1.71432
rhand -12.2188 -55.3887
rfingers 7.12502
rthumb 13.8461 -84.9078
lclavicle -3.18055e-015 4.17448e-015
lhumerus -29.3682 5.45231 78.9473
lradius 26.3215
lwrist -4.27213
lhand -23.1552 -14.7517
lfingers 7.12502
lthumb 3.29326 15.2026
rfemur -34.4153 5.52535 14.582
rtibia 14.5187
rfoot -14.8043 -2.41597
rtoes -15.2305
lfemur -33.5289 -10.2948 -12.1738
ltibia 39.7202
lfoot -10.3077 6.04316
ltoes -18.7613
1131
root 3.48162 18.0425 17.9567 -153.173 -1.78376 175.809
lowerback -22.4673 -2.79756 -5.12328
upperback 0.517581 -2.57651 0.356943
thorax 13.5102 -1.62737 2.45149
lowerneck 0.236488 -3.60448 -1.1602
upperneck 23.2795 -3.02097 1.29893
head 7.10873 -0.649923 0.538907
rclavicle -2.32578e-014 2.78299e-015
rhumerus -40.5505 -17.8199 -76.0428
rradius 35.9243
rwrist -1.73463
rhand -12.1332 -55.4939
rfingers 7.12502
rthumb 13.9286 -85.0074
lclavicle -2.32578e-014 2.78299e-015
lhumerus -29.794 5.29604 78.8211
lradius 26.3553
lwrist -4.15001
lhand -23.0663 -14.5915
lfingers 7.12502
lthumb 3.37903 15.3615
rfemur -34.1299 5.7234 14.5041
rtibia 14.2616
rfoot -14.8254 -2.54538
rtoes -14.8921
lfemur -33.7757 -10.4597 -12.689
ltibia 39.6866
lfoot -10.8903 5.82821
ltoes -18.2337
1132
root 3.50947 18.0498 17.9371 -153.324 -1.71483 175.721
lowerback -22.2585 -2.74024 -5.19904
upperback 0.528869 -2.47868 0.265132
thorax 13.3945 -1.58156 2.43004
lowerneck 0.552316 -3.61438 -1.11326
upperneck 23.007 -3.04065 1.2581
head 6.96301 -0.665549 0.518952
rclavicle -1.59028e-014 3.27995e-015
rhumerus -40.5822 -17.7607 -76.1411
rradius 36.0059
rwrist -1.77431
rhand -12.0891 -55.3951
rfingers 7.12502
rthumb 13.9711 -84.9056
lclavicle -1.59028e-014 3.27995e-015
lhumerus -29.9986 5.27155 78.7231
lradius 26.4212
lwrist -4.05352
lhand -22.8852 -14.7056
lfingers 7.12502
lthumb 3.554 15.2445
rfemur -33.7142 5.984 14.4486
rtibia 13.9399
rfoot -14.8465 -2.70256
rtoes -15.206
lfemur -33.8741 -10.6864 -13.1699
ltibia 39.5395
lfoot -11.5076 5.74762
ltoes -16.2422
1133
root 3.53327 18.0571 17.922 -153.362 -1.65081 175.63
lowerback -22.1559 -2.69162 -5.356
upperback 0.55182 -2.37547 0.264123
thorax 13.3609 -1.54402 2.55636
lowerneck 0.443478 -3.70164 -1.29052
upperneck 23.184 -3.13254 1.26715
head 7.04521 -0.715501 0.546312
rclavicle -1.10822e-014 1.19271e-015
rhumerus -40.5429 -17.6701 -76.1272
rradius 36.1939
rwrist -1.89454
rhand -12.1816 -55.6733
rfingers 7.12502
rthumb 13.882 -85.19
lclavicle -1.10822e-014 1.19271e-015
lhumerus -30.1385 5.2081 78.8318
lradius 26.5108
lwrist -4.03642
lhand -22.5832 -14.8266
lfingers 7.12502
lthumb 3.84557 15.1185
rfemur -33.4898 5.91335 14.4808
rtibia 13.7044
rfoot -14.7603 -2.52235
rtoes -15.193
lfemur -34.162 -10.8136 -13.6749
ltibia 39.3884
lfoot -11.7345 5.8641
ltoes -18.4735
1134
root 3.55651 18.064 17.908 -153.273 -1.67032 175.536
lowerback -22.1409 -2.67085 -5.44125
upperback 0.540133 -2.32514 0.240166
thorax 13.3367 -1.52577 2.59544
lowerneck 0.272779 -3.67591 -1.40859
upperneck 23.3646 -3.07898 1.30547
head 7.13667 -0.689091 0.581096
rclavicle 3.57812e-015 -7.35503e-015
rhumerus -40.4777 -17.6732 -76.1499
rradius 36.3345
rwrist -1.9111
rhand -12.3738 -55.9007
rfingers 7.12502
rthumb 13.6968 -85.4299
lclavicle 3.57812e-015 -7.35503e-015
lhumerus -30.3189 5.14738 78.852
lradius 26.6464
lwrist -3.95964
lhand -22.2145 -14.9179
lfingers 7.12502
lthumb 4.20167 15.0204
rfemur -33.4173 5.81156 14.5063
rtibia 13.5316
rfoot -14.714 -2.35907
rtoes -14.2348
lfemur -34.6127 -10.964 -14.166
ltibia 39.206
lfoot -11.8906 5.95863
ltoes -22.0995
1135
root 3.57836 18.0699 17.8898 -153.173 -1.69746 175.521
lowerback -22.1614 -2.63417 -5.41765
upperback 0.496355 -2.28229 0.202558
thorax 13.29 -1.50302 2.55376
lowerneck 0.138782 -3.62403 -1.49964
upperneck 23.5489 -3.0057 1.44446
head 7.22373 -0.640839 0.646283
rclavicle 4.17448e-015 5.1684e-015
rhumerus -40.4586 -17.6484 -76.2187
rradius 36.3825
rwrist -1.91889
rhand -12.3634 -55.6106
rfingers 7.12502
rthumb 13.7068 -85.1392
lclavicle 4.17448e-015 5.1684e-015
lhumerus -30.5135 5.18078 78.786
lradius 26.7414
lwrist -3.90299
lhand -22.1035 -14.8655
lfingers 7.12502
lthumb 4.30883 15.0707
rfemur -33.2811 5.66944 14.652
rtibia 13.2395
rfoot -14.6488 -2.27887
rtoes -14.5541
lfemur -35.0049 -11.2592 -14.534
ltibia 38.8599
lfoot -12.211 6.0172
ltoes -23.0898
1136
root 3.60006 18.075 17.8718 -153.099 -1.6824 175.536
lowerback -22.2175 -2.51882 -5.37061
upperback 0.390282 -2.13909 0.0930775
thorax 13.1771 -1.43025 2.45081
lowerneck 0.633208 -3.62934 -1.39497
upperneck 23.3374 -3.0298 1.60653
head 7.06848 -0.624582 0.685435
rclavicle 1.54058e-015 -1.2921e-014
rhumerus -40.7398 -17.6572 -76.2867
rradius 36.5353
rwrist -2.1737
rhand -12.2456 -55.1509
rfingers 7.12502
rthumb 13.8203 -84.6718
lclavicle 1.54058e-015 -1.2921e-014
lhumerus -30.7461 4.85991 78.7255
lradius 26.693
lwrist -3.82072
lhand -22.3505 -14.7164
lfingers 7.12502
lthumb 4.07027 15.2244
rfemur -33.0978 5.45112 14.8601
rtibia 12.8615
rfoot -14.4914 -2.10708
rtoes -15.2926
lfemur -35.3346 -11.4904 -14.8848
ltibia 38.4204
lfoot -12.5568 5.9184
ltoes -22.8462
1137
root 3.6243 18.082 17.8541 -153.13 -1.74683 175.555
lowerback -22.4179 -2.52209 -5.39199
upperback 0.522547 -2.11057 0.0674294
thorax 13.4437 -1.4215 2.43621
lowerneck 0.775141 -3.61441 -1.28718
upperneck 23.1236 -3.03447 1.60251
head 6.97138 -0.627705 0.665579
rclavicle 1.27222e-014 8.44835e-015
rhumerus -40.4975 -17.5207 -76.513
rradius 36.6619
rwrist -2.38842
rhand -12.0921 -55.2371
rfingers 7.12502
rthumb 13.9682 -84.7479
lclavicle 1.27222e-014 8.44835e-015
lhumerus -30.6278 4.77846 78.7035
lradius 26.5307
lwrist -3.76885
lhand -22.6444 -14.7499
lfingers 7.12502
lthumb 3.78653 15.1962
rfemur -32.7913 5.59394 14.9688
rtibia 12.4937
rfoot -14.386 -2.23761
rtoes -15.0325
lfemur -35.5553 -11.7308 -15.1923
ltibia 37.9229
lfoot -12.9472 5.53628
ltoes -20.7881
1138
root 3.64519 18.0889 17.8338 -153.221 -1.84584 175.504
lowerback -22.1802 -2.60366 -5.44052
upperback 0.501208 -2.22264 0.0915812
thorax 13.2967 -1.47348 2.46013
lowerneck 0.489384 -3.65758 -1.25765
upperneck 23.5014 -3.01933 1.37069
head 7.14108 -0.621223 0.585465
rclavicle -2.34814e-014 -7.05686e-015
rhumerus -40.4048 -17.1093 -76.7026
rradius 36.8002
rwrist -2.4631
rhand -12.0346 -55.7693
rfingers 7.12502
rthumb 14.0236 -85.2762
lclavicle -2.34814e-014 -7.05686e-015
lhumerus -30.8813 4.98003 78.6263
lradius 26.4968
lwrist -3.81765
lhand -22.7725 -14.7115
lfingers 7.12502
lthumb 3.66279 15.2368
rfemur -32.4213 5.80363 14.9722
rtibia 12.1939
rfoot -14.3652 -2.54316
rtoes -15.227
lfemur -35.6918 -12.1239 -15.57
ltibia 37.3914
lfoot -13.3434 5.21256
ltoes -18.5023
1139
root 3.66123 18.0933 17.8154 -153.189 -1.86795 175.356
lowerback -22.3256 -2.67302 -5.6022
upperback 0.631794 -2.25198 0.100867
thorax 13.5437 -1.50212 2.54676
lowerneck 0.187922 -3.62136 -1.39714
upperneck 23.5292 -2.99038 1.38439
head 7.20538 -0.627975 0.610959
rclavicle -2.48481e-016 1.49089e-015
rhumerus -40.0557 -16.9294 -76.8054
rradius 36.8715
rwrist -2.57842
rhand -12.044 -55.5819
rfingers 7.12502
rthumb 14.0146 -85.0894
lclavicle -2.48481e-016 1.49089e-015
lhumerus -30.8348 5.05528 78.7175
lradius 26.476
lwrist -3.79211
lhand -22.9054 -14.5207
lfingers 7.12502
lthumb 3.53446 15.4298
rfemur -32.2422 5.73635 14.8898
rtibia 11.9738
rfoot -14.3471 -2.55328
rtoes -15.1318
lfemur -35.9242 -12.5302 -16.1074
ltibia 36.8134
lfoot -13.6152 5.05943
ltoes -18.7304
1140
root 3.67838 18.0969 17.8008 -153.107 -1.87334 175.201
lowerback -22.4186 -2.71558 -5.76352
upperback 0.666406 -2.25201 0.046153
thorax 13.6424 -1.51379 2.57296
lowerneck 0.0722135 -3.52163 -1.54846
upperneck 23.5276 -2.8842 1.55143
head 7.22875 -0.580014 0.696025
rclavicle -1.29707e-014 -6.95746e-016
rhumerus -39.8429 -16.9016 -76.9141
rradius 36.7943
rwrist -2.6005
rhand -12.1166 -55.0007
rfingers 7.12502
rthumb 13.9446 -84.5131
lclavicle -1.29707e-014 -6.95746e-016
lhumerus -30.8926 4.90357 78.7612
lradius 26.5123
lwrist -3.49219
lhand -22.7922 -14.4545
lfingers 7.12502
lthumb 3.64373 15.4941
rfemur -32.1532 5.6284 14.7879
rtibia 11.7708
rfoot -14.3072 -2.45574
rtoes -14.5553
lfemur -36.1922 -12.828 -16.6756
ltibia 36.1379
lfoot -13.7324 4.8997
ltoes -20.3728
1141
root 3.69866 18.1017 17.7877 -153.103 -1.9713 175.068
lowerback -22.3654 -2.76978 -5.98731
upperback 0.638304 -2.27063 0.0377508
thorax 13.5905 -1.5374 2.68646
lowerneck 0.0575949 -3.5042 -1.52681
upperneck 23.666 -2.81733 1.46519
head 7.27441 -0.542706 0.669815
rclavicle -1.2921e-014 -1.23246e-014
rhumerus -39.8188 -16.8199 -76.964
rradius 36.7479
rwrist -2.53447
rhand -12.1979 -54.9099
rfingers 7.12502
rthumb 13.8663 -84.4277
lclavicle -1.2921e-014 -1.23246e-014
lhumerus -30.9853 5.12026 78.7253
lradius 26.4069
lwrist -3.61873
lhand -22.3954 -14.6216
lfingers 7.12502
lthumb 4.02699 15.3201
rfemur -31.9668 5.58275 14.7227
rtibia 11.5555
rfoot -14.225 -2.46782
rtoes -13.3342
lfemur -36.4034 -13.0478 -17.2022
ltibia 35.4402
lfoot -13.7197 4.50207
ltoes -21.5839
